<?xml version="1.0" encoding="utf-8"?>
<!-- Generator: Adobe Illustrator 27.9.3, SVG Export Plug-In . SVG Version: 9.03 Build 53313)  -->
<svg version="1.1" id="a" xmlns="http://www.w3.org/2000/svg" xmlns:xlink="http://www.w3.org/1999/xlink" x="0px" y="0px"
	 viewBox="0 0 240 60" style="enable-background:new 0 0 240 60;" xml:space="preserve">
<style type="text/css">
	.st0{fill-rule:evenodd;clip-rule:evenodd;}
	.st1{fill-rule:evenodd;clip-rule:evenodd;fill:#ED3237;}
</style>
<g>
	<rect x="123.7" y="4.5" class="st0" width="0.9" height="51.1"/>
	<path class="st1" d="M105,12.3h0.7c0.4,0,0.6,0,0.7-0.1c0.1-0.1,0.3-0.3,0.3-0.4s0-0.3-0.1-0.3c0-0.1-0.1-0.1-0.3-0.3
		c-0.1,0-0.3-0.1-0.6-0.1h-0.6L105,12.3C105.2,12.3,105,12.3,105,12.3z M104.4,14.4v-3.7h1.2c0.4,0,0.7,0,1,0.1
		c0.3,0.1,0.4,0.1,0.4,0.4c0.1,0.1,0.1,0.4,0.1,0.4c0,0.3-0.1,0.4-0.3,0.7c-0.3,0.3-0.4,0.4-0.7,0.4c0.1,0,0.3,0.1,0.4,0.3
		c0.1,0.1,0.4,0.4,0.4,0.7l0.4,0.7h-0.7l-0.4-0.6c-0.3-0.4-0.4-0.7-0.6-0.9c-0.1-0.1-0.3-0.1-0.4-0.1h-0.4v1.6H104.4L104.4,14.4
		L104.4,14.4z M105.9,9.8c-0.4,0-1,0.1-1.3,0.4c-0.4,0.3-0.9,0.4-1.1,1c-0.3,0.4-0.4,1-0.4,1.4c0,0.4,0.1,1,0.4,1.3
		c0.3,0.4,0.6,0.7,1.1,1.1c0.4,0.3,0.9,0.4,1.3,0.4s1-0.1,1.3-0.4c0.4-0.3,0.9-0.6,1.1-1.1c0.3-0.4,0.4-0.9,0.4-1.3
		c0-0.4-0.1-1-0.4-1.4c-0.3-0.4-0.6-0.9-1.1-1.1C107,9.8,106.4,9.8,105.9,9.8z M105.9,9.1c0.6,0,1.1,0.1,1.7,0.4
		c0.4,0.3,1,0.7,1.2,1.2c0.3,0.4,0.4,1.1,0.4,1.7c0,0.6-0.1,1.1-0.4,1.7c-0.3,0.4-0.7,1-1.2,1.2c-0.5,0.3-1.1,0.4-1.7,0.4
		s-1.1-0.1-1.7-0.4c-0.4-0.3-1-0.7-1.2-1.2c-0.3-0.4-0.4-1.1-0.4-1.7c0-0.6,0.1-1.1,0.4-1.7c0.3-0.4,0.7-1,1.2-1.2
		C104.7,9.2,105.3,9.1,105.9,9.1z M90.7,37.1H106l1-4.4h-9.4l3.7-17.7h-6L90.7,37.1z M91.3,15.7c-1.2-0.4-2.4-0.6-3.6-0.7
		c-1.2-0.3-2.4-0.3-3.8-0.3c-2.6,0-4.8,0.4-6.6,1c-1.9,0.6-3.4,1.4-4.5,2.6c-1.2,1.1-2.1,2.4-2.6,4c-0.6,1.6-0.9,3.2-0.9,5
		c0,1.4,0.3,2.9,0.7,4.2s1.2,2.3,2.2,3.3c1,0.9,2.1,1.6,3.6,2.1c1.3,0.4,2.9,0.7,4.8,0.7c0.4,0,1,0,1.7-0.1c0.6,0,1.3-0.1,2.1-0.1
		c0.7-0.1,1.4-0.1,2.1-0.3c0.7-0.1,1.3-0.3,1.9-0.4l2.7-12.4h-9.5l-0.9,4.2h3.6l-1,4.4c-0.9,0.3-1.6,0.4-2.3,0.4
		c-0.7,0-1.4-0.1-2.1-0.4c-0.6-0.3-1.2-0.6-1.7-1.1c-0.4-0.4-0.9-1.1-1.2-1.9c-0.3-0.7-0.4-1.6-0.4-2.6c0-1.1,0.1-2.1,0.4-3
		c0.3-1,0.9-2,1.4-2.7c0.6-0.9,1.6-1.4,2.6-2c1.1-0.4,2.3-0.7,3.8-0.7c1.3,0,2.4,0.1,3.4,0.3c1,0.3,2,0.4,2.9,0.9L91.3,15.7z
		 M61,28.3h-5.8l4.6-8.7H60L61,28.3z M44,37.1h6.3l2.7-4.8h8.6l0.6,4.8h6L64.6,15h-7.5L44,37.1z M13.3,36c7.5,2.3,16.9,1.4,23-2
		C29.9,23.9,22.5,34.2,13.3,36z M22.4,12.1c11.8,0,20.6,5.6,20.6,12.5c0,1.6-0.6,3.9-2.1,4.8c-8.7,4.9-8.6-18.1-19.1-3.2
		c-3,4.3-6.6,7.8-11.5,7.8C5.7,33.7,1,28,2.1,23C3.5,17,11.5,12.1,22.4,12.1z"/>
	<path d="M103.1,47.5c0.1-0.4,0.4-0.6,0.7-0.6c0.4,0,0.6,0.3,0.6,0.6H103.1z M103.9,46c-1.1,0-1.7,0.7-1.7,1.7c0,1,0.7,1.7,1.9,1.7
		c0.6,0,1.1-0.3,1.4-0.6l-0.6-0.6c-0.3,0.3-0.4,0.4-0.9,0.4c-0.4,0-0.6-0.3-0.7-0.6h2.3C105.6,46.9,105,46,103.9,46z M100.7,46.6V46
		h-1.1v3.4h1.1v-1.7c0-0.4,0.4-0.7,1.1-0.7v-1C101.4,46,101.1,46.2,100.7,46.6z M97.2,48.8c-0.3,0-0.4-0.1-0.4-0.4
		c0-0.3,0.1-0.4,0.4-0.4h0.6v0.3C97.8,48.6,97.5,48.8,97.2,48.8z M97.5,46c-0.6,0-1.1,0.1-1.6,0.4l0.4,0.7c0.4-0.1,0.7-0.3,1-0.3
		c0.4,0,0.6,0.3,0.6,0.4l0,0H97c-0.9,0-1.3,0.4-1.3,1c0,0.6,0.4,1.1,1.1,1.1c0.4,0,0.9-0.1,1-0.4v0.4h1.1V47
		C98.9,46.5,98.4,46,97.5,46z M89.6,46.1l1.2,3.4h1.1l0.6-2.1l0.6,2.1h1.1l1.2-3.4h-1.1l-0.7,2.3l-0.6-2.3H92l-0.6,2.3l-0.7-2.3
		H89.6z M88.1,46c-0.4,0-0.9,0.3-1.1,0.6v-1.9h-1.1v4.6H87v-1.5c0-0.4,0.3-0.7,0.6-0.7s0.6,0.3,0.6,0.6v1.9h1.1v-2.1
		C89.3,46.6,88.9,46,88.1,46z M85,48.6c-0.1,0.1-0.4,0.1-0.4,0.1c-0.3,0-0.4-0.1-0.4-0.4V47h0.9v-0.7h-0.9v-1h-1.1v1h-0.4V47h0.4
		v1.4c0,0.7,0.4,1.1,1.1,1.1c0.4,0,0.6-0.1,0.9-0.3L85,48.6z M80.7,48.8c-0.3,0-0.4-0.1-0.4-0.4c0-0.3,0.1-0.4,0.4-0.4h0.6v0.3
		C81.1,48.6,80.8,48.8,80.7,48.8z M80.8,46c-0.6,0-1.1,0.1-1.6,0.4l0.4,0.7c0.4-0.1,0.7-0.3,1-0.3c0.4,0,0.6,0.3,0.6,0.4l0,0h-0.9
		c-0.9,0-1.3,0.4-1.3,1c0,0.6,0.4,1.1,1.1,1.1c0.4,0,0.9-0.1,1-0.4v0.4h1.1V47C82.4,46.5,81.8,46,80.8,46z M76.8,48.6h-0.9v-1h0.9
		c0.4,0,0.6,0.1,0.6,0.4C77.5,48.5,77.3,48.6,76.8,48.6z M76.8,46.9h-0.9V46h0.9c0.4,0,0.4,0.1,0.4,0.4
		C77.3,46.8,77.2,46.9,76.8,46.9z M77,45.2H75v4.4h2.2c1,0,1.7-0.4,1.7-1.2c0-0.6-0.4-1-0.9-1.1c0.4-0.1,0.7-0.4,0.7-1
		C78.5,45.5,77.9,45.2,77,45.2z M67.4,46.1V47H69l-1.6,1.9v0.7h3v-0.9h-1.7l1.6-1.9v-0.7C70.3,46.1,67.4,46.1,67.4,46.1z M66.8,48.6
		c-0.1,0.1-0.4,0.1-0.4,0.1c-0.3,0-0.4-0.1-0.4-0.4V47h0.9v-0.7H66v-1H65v1h-0.4V47H65v1.4c0,0.7,0.4,1.1,1.1,1.1
		c0.4,0,0.6-0.1,0.9-0.3L66.8,48.6z M63.2,46.6V46h-1.1v3.4h1.1v-1.7c0-0.4,0.4-0.7,1.1-0.7v-1C63.8,46,63.5,46.2,63.2,46.6z
		 M59.5,48.8c-0.3,0-0.4-0.1-0.4-0.4c0-0.3,0.1-0.4,0.4-0.4h0.6v0.3C60.2,48.6,59.9,48.8,59.5,48.8z M59.9,46
		c-0.6,0-1.1,0.1-1.6,0.4l0.4,0.7c0.4-0.1,0.7-0.3,1-0.3c0.4,0,0.6,0.3,0.6,0.4l0,0h-0.9c-0.9,0-1.3,0.4-1.3,1
		c0,0.6,0.4,1.1,1.1,1.1c0.4,0,0.9-0.1,1-0.4v0.4h1.1V47C61.4,46.5,60.8,46,59.9,46z M56.5,46.1v1.7c0,0.4-0.3,0.7-0.6,0.7
		c-0.4,0-0.4-0.3-0.4-0.6v-1.9h-1.1v2.2c0,0.7,0.4,1.3,1.2,1.3c0.4,0,0.9-0.3,1.1-0.6v0.6h1.1v-3.4L56.5,46.1
		C56.4,46.2,56.4,46.1,56.5,46.1z M50,47.3c0-0.7,0.6-1.2,1.2-1.2c0.6,0,1.2,0.4,1.2,1.2c0,0.7-0.4,1.2-1.2,1.2
		C50.6,48.6,50,47.9,50,47.3z M53.5,49.3c-0.3,0.3-0.6,0.4-0.7,0.4c-0.3,0-0.4-0.1-0.4-0.3c0.9-0.4,1.4-1.1,1.4-2.1
		c0-1.2-1-2.2-2.3-2.2c-1.3,0-2.3,1-2.3,2.2s1,2.2,2.3,2.2c0.3,0.6,0.9,1,1.4,1c0.4,0,1-0.3,1.2-0.4L53.5,49.3z M42.4,47.5
		c0.1-0.4,0.4-0.6,0.7-0.6c0.4,0,0.6,0.3,0.6,0.6H42.4z M43,46c-1.1,0-1.7,0.7-1.7,1.7c0,1,0.7,1.7,1.9,1.7c0.6,0,1.1-0.3,1.4-0.6
		L44,48.1c-0.3,0.3-0.4,0.4-0.9,0.4c-0.4,0-0.6-0.3-0.7-0.6h2.3C44.9,46.9,44.3,46,43,46z M39.6,44.8v4.6h1.1v-4.6H39.6z M37.1,48.6
		c-0.4,0-0.7-0.4-0.7-0.9s0.3-0.9,0.7-0.9s0.7,0.4,0.7,0.9C37.9,48.3,37.5,48.6,37.1,48.6z M37.4,46c-0.4,0-0.7,0.1-1,0.4v-1.7h-1.1
		v4.6h1.1V49c0.3,0.4,0.6,0.4,1,0.4c1,0,1.6-0.7,1.6-1.7C38.9,46.8,38.4,46,37.4,46z M33.6,46.6V46h-1.1v3.4h1.1v-1.7
		c0-0.4,0.4-0.7,1.1-0.7v-1C34.2,46,33.8,46.2,33.6,46.6z M30,48.8c-0.3,0-0.4-0.1-0.4-0.4c0-0.3,0.1-0.4,0.4-0.4h0.6v0.3
		C30.6,48.6,30.3,48.8,30,48.8z M30.3,46c-0.6,0-1.1,0.1-1.6,0.4L29,47c0.4-0.1,0.7-0.3,1-0.3c0.4,0,0.6,0.3,0.6,0.4l0,0h-0.9
		c-0.9,0-1.3,0.4-1.3,1c0,0.6,0.4,1.1,1.1,1.1c0.4,0,0.9-0.1,1-0.4v0.4h1.2V47C31.7,46.5,31.3,46,30.3,46z M23,45.2v4.4h1v-2.9
		l1,2.3h0.7l1-2.3v2.9h1v-4.4h-1.2l-1.2,2.6L24,45.2H23z M18.2,47.2l0.4-0.7c-0.4-0.3-1-0.4-1.4-0.4c-0.9,0-1.3,0.4-1.3,1.1
		c0,1.2,1.7,1,1.7,1.3c0,0.1-0.1,0.3-0.4,0.3c-0.4,0-0.9-0.1-1.2-0.4l-0.3,0.6c0.4,0.4,1,0.4,1.6,0.4c0.9,0,1.4-0.4,1.4-1.1
		c0-1.2-1.9-1-1.9-1.4c0-0.1,0.1-0.3,0.4-0.3C17.5,46.9,17.9,47,18.2,47.2z M13.1,47.5c0.1-0.4,0.4-0.6,0.7-0.6
		c0.4,0,0.6,0.3,0.6,0.6H13.1z M13.7,46c-1.1,0-1.7,0.7-1.7,1.7c0,1,0.7,1.7,1.9,1.7c0.6,0,1.1-0.3,1.4-0.6l-0.6-0.5
		c-0.3,0.3-0.4,0.4-0.9,0.4c-0.4,0-0.6-0.3-0.7-0.6h2.3C15.6,46.9,14.9,46,13.7,46z M10.2,44.8v4.6h1.1v-4.6H10.2z M8.2,46.1v3.4
		h1.1v-3.4H8.2z M8.9,44.6c-0.3,0-0.4,0.3-0.4,0.4c0,0.3,0.3,0.4,0.4,0.4c0.3,0,0.4-0.3,0.4-0.4C9.3,44.9,9,44.6,8.9,44.6z
		 M4.1,45.2v1h1.3v3.4h1.1v-3.4h1.3v-1H4.1z"/>
	<path class="st0" d="M20.8,47.1c0.4,0,0.6,0.3,0.6,0.6s-0.3,0.6-0.6,0.6c-0.4,0-0.6-0.3-0.6-0.6C20.2,47.3,20.5,47.1,20.8,47.1"/>
	<path class="st0" d="M46.8,47.1c0.4,0,0.6,0.3,0.6,0.6s-0.3,0.6-0.6,0.6s-0.6-0.3-0.6-0.6C46.2,47.3,46.4,47.1,46.8,47.1"/>
	<path class="st0" d="M72.6,47.1c0.4,0,0.6,0.3,0.6,0.6s-0.3,0.6-0.6,0.6s-0.6-0.3-0.6-0.6C71.9,47.3,72.2,47.1,72.6,47.1"/>
	<path class="st1" d="M162.5,34.6L162.5,34.6c0.6-0.7,1.3-1.3,2-1.2c1.1,0.1-0.1,3.2-0.4,3.7c-0.3,0.4-3.2,5.5-3.2,5.5
		s-1.9,2.7-2.9,3.4c-1.1,0.9-1.6,1-1.6-0.3c0.1-1.2,1.2-3.7,2.4-5.8C160,38.1,161.1,36.2,162.5,34.6 M150,25.5
		c0.1,1.1-0.4,3.8-2,6.8c-1.4,2.9-4.4,8.1-5.2,9.5c-0.7,1.4-1.1,2.7-1,3.7c0.1,0.7,0.4,1.1,1.1,1.3c0.4,0.1,0.6-0.1,0.7-0.4
		c0.1-0.7,0.4-2.2,2-4.6c0.1-0.1,0.3-0.4,0.3-0.4c0,0.6,0,1.3,0,2.1c0,1.3,0.4,2.3,0.9,3c0.3,0.4,1.1,1.1,2.3,1.2
		c1.6,0.1,2.4-0.6,3.6-1.9c1-1.1,1.7-2.1,1.7-2.1c-0.3,2.6,0.9,4,2.3,3.7c1.4-0.4,3.6-2.9,3.6-2.9c-0.4,0.7-0.1,3.2,1.6,3.3
		c1.9,0.1,3.9-2.7,4.6-3.8c0.6-1.1,2.3-3.9,2.4-4.5c0.1-0.4-0.1-0.4-0.3-0.4l-0.1,0.1c-0.3,0.4-1.4,2.9-2,3.4c-0.4,0.7-3.4,5-4,4.2
		c-0.6-0.9,1-3.8,2.3-6.2c1.3-2.4,1.9-4.2,1.9-4.8s-0.6-2.9-2.9-3c-2.2,0-4.4,1.9-6.2,4.2c-1.9,2.3-2.3,4.8-4,6.9
		c-1.7,2.1-2.9,3.7-4.4,3c-1.6-0.6-0.7-5.4-0.7-5.4c1,0,3.7-0.4,5.2-2.2c0.9-1.2,1.9-3.7,1.1-5.2c-0.4-0.7-1.4-0.6-1.7,0.3
		c-0.1,0.3-0.1,0.6-0.4,1.1c-0.4,1.4-1.1,2.6-2.7,4s-2.9,1.2-3.6,1.1c2.1-3.7,4.4-7.9,4.8-8.9c0.4-1.1,1.2-2.9,0.9-4.2
		C151.8,26.3,150.6,25.8,150,25.5z"/>
	<path d="M144.8,21.3L144.8,21.3c2.7,0,4.5-1.9,4.5-4.6c0-2.7-1.9-4.5-4.5-4.5h-1.4v9.2H144.8z M143.3,21.7v4.5
		c0,0.9,0.4,1.3,1.3,1.3h0.1V28h-5.6v-0.4h0.1c0.9,0,1.3-0.4,1.3-1.3V13.4c0-0.7-0.4-1.3-1.3-1.3h-0.1v-0.4h7.9c3,0,5,2,5,5.2
		c0,3-2,5-5,5h-3.8L143.3,21.7C143.2,21.7,143.3,21.7,143.3,21.7z"/>
	<path d="M158.5,27.6V28h-5.6v-0.4h0.1c0.9,0,1.3-0.4,1.3-1.3v-8.1c0-0.9-0.4-1.3-1.3-1.3h-0.1v-0.4h4.3v1.7c1.2-1,2.6-2,4-2
		c1.4,0,2.3,1.1,2.4,2.3c0.3,2.6-2.4,2.9-2.4,0.4c0-1-0.4-1.7-1.3-1.7c-0.9,0-1.9,0.7-2.7,1.6v7.8C157.3,27.2,157.8,27.6,158.5,27.6
		L158.5,27.6z"/>
	<path d="M172.3,21L172.3,21c0-2.2-0.4-4.4-1.7-4.4c-1.2,0-2.4,1.9-2.7,4.4H172.3z M174.6,21.5h-7v0.4c0,3,1.3,5.3,3.7,5.3
		c1.4,0,2.9-1,3.7-2.6h0.4c-1,2.3-2.6,3.8-5,3.8c-3,0-5.5-2.4-5.5-6.2s2.4-6.2,5.4-6.2c2.9,0,4.4,2.3,4.4,4.9V21.5L174.6,21.5
		L174.6,21.5z"/>
	<path d="M181.6,27.6V28H176v-0.4h0.1c0.9,0,1.3-0.4,1.3-1.3v-8.1c0-0.9-0.4-1.3-1.3-1.3H176v-0.4h4.3v2.1c1.4-1.2,3.2-2.3,4.8-2.3
		c1.3,0,2.2,0.7,2.4,2.3c1.4-1.1,3.2-2.3,4.8-2.3c1.6,0,2.6,1.1,2.6,3.6v6.6c0,0.9,0.4,1.3,1.3,1.3h0.1V28h-5.6v-0.4h0.1
		c0.7,0,1.3-0.4,1.3-1.3v-5.8c0-1.9-0.7-2.9-1.9-2.9c-1,0-1.9,0.6-2.6,1.2c0,0.3,0,0.4,0,0.7v6.6c0,0.9,0.6,1.3,1.3,1.3h0.1V28h-5.6
		v-0.4h0.1c0.9,0,1.3-0.4,1.3-1.3v-5.8c0-1.9-0.7-2.9-2-2.9c-1,0-2,0.7-2.7,1.2v7.3C180.1,27.2,180.7,27.6,181.6,27.6L181.6,27.6z"
		/>
	<path d="M199.9,11.5L199.9,11.5c1.1,0,1.9,0.7,1.9,1.9s-0.7,1.9-1.9,1.9c-1.1,0-1.9-0.7-1.9-1.9C198.1,12.2,198.8,11.5,199.9,11.5
		 M202.8,27.6V28h-5.6v-0.4h0.1c0.9,0,1.3-0.4,1.3-1.3v-8.1c0-0.9-0.4-1.3-1.3-1.3h-0.1v-0.4h4.3v9.9
		C201.3,27.2,201.9,27.6,202.8,27.6L202.8,27.6z"/>
	<path d="M211.1,16.8v-0.4h4.3v9.9c0,0.9,0.4,1.3,1.3,1.3h0.1V28h-4.3v-2.2c-1.6,1.2-3.3,2.4-5.3,2.4c-1.9,0-2.9-1.1-2.9-3.6v-6.6
		c0-0.9-0.4-1.3-1.3-1.3H203v-0.4h4.3v7.6c0,1.9,0.7,2.9,2.1,2.9c1.2,0,2.4-0.9,3.2-1.4v-7.1C212.6,17.3,212,16.8,211.1,16.8
		L211.1,16.8z"/>
	<path d="M223.1,27.6V28h-5.6v-0.4h0.1c0.9,0,1.3-0.4,1.3-1.3v-8.1c0-0.9-0.4-1.3-1.3-1.3h-0.1v-0.4h4.3v2.1
		c1.4-1.2,3.2-2.3,4.8-2.3c1.3,0,2.2,0.7,2.4,2.3c1.4-1.1,3.2-2.3,4.8-2.3c1.6,0,2.6,1.1,2.6,3.6v6.6c0,0.9,0.4,1.3,1.3,1.3h0.1V28
		h-5.6v-0.4h0.1c0.7,0,1.3-0.4,1.3-1.3v-5.8c0-1.9-0.7-2.9-1.9-2.9c-1,0-1.9,0.6-2.6,1.2c0,0.3,0,0.4,0,0.7v6.6
		c0,0.9,0.6,1.3,1.3,1.3h0.1V28H225v-0.4h0.1c0.9,0,1.3-0.4,1.3-1.3v-5.8c0-1.9-0.7-2.9-2-2.9c-1,0-2,0.7-2.7,1.2v7.3
		C221.8,27.2,222.4,27.6,223.1,27.6L223.1,27.6z"/>
	<path d="M176.3,40.4L176.3,40.4c2.7,0,4.5-1.9,4.5-4.6c0-2.7-1.9-4.5-4.5-4.5h-1.4v9.2H176.3z M174.8,41v4.5c0,0.9,0.4,1.3,1.3,1.3
		h0.1v0.4h-5.6v-0.4h0.1c0.9,0,1.3-0.4,1.3-1.3V32.7c0-0.7-0.4-1.3-1.3-1.3h-0.1v-0.4h7.9c3,0,5,2,5,5.2c0,3-2,5-5,5
		C178.5,41,174.8,41,174.8,41z"/>
	<path d="M192.2,43.4L192.2,43.4c0-1.3-1.3-2.1-2.7-2.1c-1.7,0-2.9,1.4-2.9,2.9s1,2.7,2.4,2.7c1,0,2.1-0.6,2.9-2.1v-1.5H192.2z
		 M195,45.5c0,0.9,0.4,1.3,1.3,1.3h0.1v0.4h-4.2v-1.6c-0.9,1.2-2.1,1.9-3.9,1.9c-2.6,0-4.4-1.4-4.4-3.4c0-2.1,1.9-3.9,4.6-3.9
		c1.6,0,2.9,0.4,3.6,1.4v-2.1c0-3-1.3-3.9-2.6-3.9c-1.6,0-2,1.2-2,2.2c0,2.6-2.7,2.1-2.4-0.1c0.3-1.4,1.6-2.6,4.5-2.6
		c2.9,0,5.3,1,5.3,4.6L195,45.5L195,45.5z"/>
	<path d="M204,46.9L204,46.9c1.6,0,2.9-2.3,2.9-5.3c0-3-1.3-5.3-3-5.3c-1.9,0-3,2.4-3,5.6v2C201.7,45.6,202.8,46.9,204,46.9
		 M202.1,51.6V52h-5.6v-0.4h0.1c0.9,0,1.3-0.6,1.3-1.3V37.4c0-0.9-0.4-1.3-1.3-1.3h-0.1v-0.4h4.3v3.3c0.7-2.1,2.2-3.4,4.2-3.4
		c2.9,0,4.8,2.4,4.8,6.2c0,3.7-2,6.2-4.8,6.2c-2.1,0-3.3-1.2-4.2-2.7v5.3C200.8,51.1,201.3,51.6,202.1,51.6L202.1,51.6z"/>
	<path d="M218.4,46.9L218.4,46.9c1.6,0,2.9-2.3,2.9-5.3c0-3-1.3-5.3-3-5.3c-1.9,0-3,2.4-3,5.6v2C216.2,45.6,217.2,46.9,218.4,46.9
		 M216.5,51.6V52h-5.6v-0.4h0.1c0.9,0,1.3-0.6,1.3-1.3V37.4c0-0.9-0.4-1.3-1.3-1.3h-0.1v-0.4h4.3v3.3c0.7-2.1,2.2-3.4,4.2-3.4
		c2.9,0,4.8,2.4,4.8,6.2c0,3.7-2,6.2-4.8,6.2c-2.1,0-3.3-1.2-4.2-2.7v5.3C215.3,51.1,215.6,51.6,216.5,51.6L216.5,51.6z"/>
	<path d="M233.9,43.4L233.9,43.4c0-1.3-1.3-2.1-2.7-2.1c-1.7,0-2.9,1.4-2.9,2.9s1,2.7,2.4,2.7c1,0,2.1-0.6,2.9-2.1v-1.5H233.9z
		 M236.7,45.5c0,0.9,0.4,1.3,1.3,1.3h0.1v0.4h-4.2v-1.6c-0.9,1.2-2.1,1.9-3.9,1.9c-2.6,0-4.4-1.4-4.4-3.4c0-2.1,1.9-3.9,4.6-3.9
		c1.6,0,2.9,0.4,3.6,1.4v-2.1c0-3-1.3-3.9-2.6-3.9c-1.6,0-2,1.2-2,2.2c0,2.6-2.7,2.1-2.4-0.1c0.3-1.4,1.6-2.6,4.5-2.6
		c2.9,0,5.3,1,5.3,4.6V45.5z"/>
</g>
</svg>
