<?xml version="1.0" encoding="utf-8"?>
<!-- Generator: Adobe Illustrator 15.0.0, SVG Export Plug-In . SVG Version: 6.00 Build 0)  -->
<!DOCTYPE svg PUBLIC "-//W3C//DTD SVG 1.1//EN" "http://www.w3.org/Graphics/SVG/1.1/DTD/svg11.dtd">
<svg version="1.1" id="RZ" xmlns="http://www.w3.org/2000/svg" xmlns:xlink="http://www.w3.org/1999/xlink" x="0px" y="0px"
	 width="41.075px" height="53.741px" viewBox="67.462 77.13 41.075 53.741" enable-background="new 67.462 77.13 41.075 53.741"
	 xml:space="preserve">
<g>
	<path fill="#FFFFFF" d="M104.594,99.545c0,3.074-2.514,5.588-5.588,5.588s-5.588-2.514-5.588-5.588s2.514-5.557,5.588-5.557
		C102.08,93.957,104.594,96.471,104.594,99.545 M108.537,99.545c0-5.247-4.285-9.531-9.531-9.531s-9.531,4.285-9.531,9.531
		c0,4.377,2.98,8.104,7.018,9.189c0.188,0.063,0.248,0.063,0.371,0.187c0.125,0.124,0.156,0.218,0.156,0.341v3.043c0,0,0,0,0,0.031
		v2.98c0,0.279,0.217,0.465,0.465,0.465c0.716,0,1.49,0.031,1.49,0.031c3.074,0.03,5.588,2.516,5.588,5.558
		c0,3.073-2.481,5.558-5.588,5.589c0,0-0.774,0-1.49,0c-0.278,0-0.465,0.217-0.465,0.465v2.98c0,0.279,0.217,0.467,0.465,0.467h1.49
		c5.248,0,9.531-4.285,9.531-9.531c0-4.285-2.824-7.918-6.736-9.098c-0.125-0.031-0.278-0.094-0.403-0.123
		c0,0-0.218-0.063-0.279-0.156c-0.063-0.093-0.124-0.186-0.124-0.311v-2.359c0-0.124,0.03-0.311,0.124-0.402
		c0.155-0.156,0.343-0.188,0.373-0.188C105.557,107.617,108.537,103.922,108.537,99.545"/>
	<path fill="#FFFFFF" d="M82.551,99.545c0,3.074-2.515,5.557-5.588,5.557c-3.074,0-5.588-2.514-5.588-5.588
		c0-3.072,2.516-5.557,5.588-5.557C80.068,93.957,82.551,96.471,82.551,99.545L82.551,99.545z M86.525,80.514L86.525,80.514
		c0-1.676,0-2.949,0-2.949c0-0.248-0.188-0.435-0.436-0.435h-3.074c-0.248,0-0.435,0.187-0.435,0.435v0.063v14.219
		c-1.583-1.148-3.478-1.8-5.588-1.8c-5.247,0-9.531,4.284-9.531,9.531s4.285,9.532,9.531,9.532c5.123,0,9.313-4.067,9.5-9.129
		c0.03-0.217,0.03-0.402,0.03-0.402C86.525,99.545,86.525,86.288,86.525,80.514"/>
</g>
</svg>
