<svg xmlns="http://www.w3.org/2000/svg" width="278" height="26" viewBox="0 0 278 26" fill="none"><path d="M278 25.7818H248.356V0.211864H257.277V21.3312H278V25.7818ZM232.719 25.7818H223.798V0.211864H232.719V25.7818ZM210.466 18.2424C210.466 20.7773 208.715 22.7452 205.207 24.1332C202.127 25.3778 198.237 26.0033 193.526 26.0033C186.423 26.0033 180.863 24.876 176.84 22.6279L182.614 19.3958C185.18 20.8294 188.862 21.5527 193.653 21.5527C199.046 21.5527 201.739 20.4971 201.739 18.3923C201.739 16.6459 199.921 15.6294 196.286 15.3427L190.766 14.8996C182.68 14.274 178.637 11.9021 178.637 7.75773C178.637 5.26851 180.221 3.33317 183.389 1.9452C186.296 0.654971 190.018 0.00334246 194.555 0.00334246C200.717 0.00334246 205.635 0.993819 209.31 2.98129L203.65 6.10259C201.418 4.92966 198.284 4.34319 194.248 4.34319C192.23 4.34319 190.599 4.59733 189.363 5.09908C187.899 5.67251 187.171 6.50008 187.171 7.57527C187.171 9.17828 189.055 10.1231 192.818 10.4099L198.211 10.8399C206.383 11.485 210.466 13.9547 210.466 18.2359V18.2424ZM170.378 0.211864L156.645 15.2971V25.7818H147.791V15.2971L134.058 0.211864H143.748L152.282 10.5206L160.688 0.211864H170.378ZM116.042 8.03793C116.042 7.00835 115.421 6.1873 114.184 5.57477C112.941 4.96224 111.404 4.65597 109.567 4.65597H101.16V11.4069H109.567C111.451 11.4069 113.002 11.1071 114.218 10.5076C115.434 9.9081 116.049 9.08053 116.049 8.03141L116.042 8.03793ZM126.828 25.7818H116.423L107.569 15.5838H101.16V25.7818H92.239V0.211864H110.141C114.465 0.211864 118.013 0.915623 120.793 2.32966C123.573 3.74369 124.963 5.64645 124.963 8.03793C124.963 11.3678 122.183 13.6028 116.624 14.7562L126.828 25.7818ZM67.2329 17.0565L61.653 7.75773L55.8793 17.0565H67.2396H67.2329ZM81.6071 25.7818H72.305L69.6119 21.2595H53.3801L50.6202 25.7818H41.3181L57.9242 0.211864H64.9208L81.6071 25.7818ZM33.6265 17.9166C32.8981 20.4319 31.047 22.4063 28.0733 23.8399C25.0996 25.2735 21.344 25.9968 16.8132 25.9968C11.935 25.9968 7.83193 25.065 4.49066 23.1948C2.47922 22.0675 1.15608 20.5948 0.514555 18.7768C0.173746 17.7928 0 15.8705 0 12.9968C0 10.1231 0.173746 8.24645 0.514555 7.21688C1.11598 5.39883 2.43912 3.92615 4.49066 2.79883C7.87202 0.928656 11.9751 -0.00317383 16.8132 -0.00317383C21.3908 -0.00317383 25.1464 0.707102 28.0733 2.13417C31.0003 3.56124 32.8513 5.54219 33.6265 8.07703H24.5783C23.5492 5.65948 20.9831 4.44745 16.8801 4.44745C14.187 4.44745 12.1087 5.00785 10.6586 6.13517C9.50256 7.04745 8.92786 9.33467 8.92786 12.9968V15.2971C8.92786 15.7532 8.96796 16.2289 9.05483 16.7307C9.60948 19.9367 12.2224 21.5397 16.8801 21.5397C20.9431 21.5397 23.5091 20.3277 24.5783 17.9101H33.6265V17.9166Z" fill="#ED1C24"></path></svg>